0
SECTION
2
HEADER
9
$INSUNITS
70
4
9
$ACADVER
1
AC1014
9
$HANDSEED
5
FFFF
0
ENDSEC
0
SECTION
2
TABLES
0
TABLE
2
VPORT
5
8
100
AcDbSymbolTable
0
ENDTAB
0
TABLE
2
LTYPE
5
5
100
AcDbSymbolTable
0
LTYPE
5
14
100
AcDbSymbolTableRecord
100
AcDbLinetypeTableRecord
2
BYBLOCK
70
0
0
LTYPE
5
15
100
AcDbSymbolTableRecord
100
AcDbLinetypeTableRecord
2
BYLAYER
70
0
0
LTYPE
5
16
100
AcDbSymbolTableRecord
100
AcDbLinetypeTableRecord
2
DASHED
70
0
3
Dashed __ __ __ __ __ __ __ __ __ __ __ __ __ _
72
65
73
2
40
0.75
49
0.5
74
0
49
-0.25
74
0
0
ENDTAB
0
TABLE
2
LAYER
5
2
100
AcDbSymbolTable
70
2
0
LAYER
5
50
100
AcDbSymbolTableRecord
100
AcDbLayerTableRecord
2
0
70
0
62
7
6
CONTINUOUS
0
ENDTAB
0
TABLE
2
STYLE
5
3
100
AcDbSymbolTable
70
1
0
STYLE
5
11
100
AcDbSymbolTableRecord
100
AcDbTextStyleTableRecord
2
STANDARD
70
0
0
ENDTAB
0
TABLE
2
VIEW
5
6
100
AcDbSymbolTable
70
0
0
ENDTAB
0
TABLE
2
UCS
5
7
100
AcDbSymbolTable
70
0
0
ENDTAB
0
TABLE
2
APPID
5
9
100
AcDbSymbolTable
70
2
0
APPID
5
12
100
AcDbSymbolTableRecord
100
AcDbRegAppTableRecord
2
ACAD
70
0
0
ENDTAB
0
TABLE
2
DIMSTYLE
5
A
100
AcDbSymbolTable
70
1
0
ENDTAB
0
TABLE
2
BLOCK_RECORD
5
1
100
AcDbSymbolTable
70
1
0
BLOCK_RECORD
5
1F
100
AcDbSymbolTableRecord
100
AcDbBlockTableRecord
2
*MODEL_SPACE
0
BLOCK_RECORD
5
1B
100
AcDbSymbolTableRecord
100
AcDbBlockTableRecord
2
*PAPER_SPACE
0
ENDTAB
0
ENDSEC
0
SECTION
2
BLOCKS
0
BLOCK
5
20
100
AcDbEntity
100
AcDbBlockBegin
2
*MODEL_SPACE
0
ENDBLK
5
21
100
AcDbEntity
100
AcDbBlockEnd
0
BLOCK
5
1C
100
AcDbEntity
100
AcDbBlockBegin
2
*PAPER_SPACE
0
ENDBLK
5
1D
100
AcDbEntity
100
AcDbBlockEnd
0
ENDSEC
0
SECTION
2
ENTITIES
0
POINT
5
100
100
AcDbEntity
8
0
100
AcDbPoint
10
0
20
0
30
0
0
LWPOLYLINE
5
101
100
AcDbEntity
8
0
100
AcDbPolyline
90
4
70
1
43
0.0
10
0
20
0
10
225
20
0
10
225
20
405
10
0
20
405
0
LWPOLYLINE
5
102
100
AcDbEntity
8
0
100
AcDbPolyline
90
4
70
1
43
0.0
10
197
20
358.5
10
176.00000046938658
20
358.5
10
176.00000046938658
20
341.50000037997961
10
197
20
341.50000037997961
0
LWPOLYLINE
5
103
100
AcDbEntity
8
0
100
AcDbPolyline
90
4
70
1
43
0.0
10
98.5
20
361.00000000000011
10
124.5
20
361.00000000000011
10
124.5
20
339.00000000000006
10
98.5
20
339.00000000000006
0
LWPOLYLINE
5
104
100
AcDbEntity
8
0
100
AcDbPolyline
90
8
70
1
43
0.0
10
26
20
363.50000000000011
10
47
20
363.50000000000011
42
-0.41421356237310231
10
51.999999999999986
20
358.50000000000011
10
51.999999999999986
20
341.50000000000006
42
-0.41421356237310231
10
47
20
336.50000000000006
10
26.000000000000007
20
336.50000000000006
42
-0.41421356237310231
10
21.000000000000021
20
341.50000000000006
10
21.000000000000021
20
358.50000000000011
42
-0.41421356237310203
0
LWPOLYLINE
5
105
100
AcDbEntity
8
0
100
AcDbPolyline
90
4
70
1
43
0.0
10
171.50000000000003
20
308.5
10
203.5
20
308.5
10
203.5
20
258.5
10
171.50000000000003
20
258.5
0
CIRCLE
5
106
100
AcDbEntity
8
0
100
AcDbCircle
10
111.49999999999999
20
269.00000400841236
30
0
40
7.5000000000000098
210
0
220
0
230
1
0
LWPOLYLINE
5
107
100
AcDbEntity
8
0
100
AcDbPolyline
90
4
70
1
43
0.0
10
21
20
277.50000000000006
10
51.999999999999993
20
277.50000000000006
10
51.999999999999993
20
260.50000000000006
10
21
20
260.50000000000006
0
LWPOLYLINE
5
108
100
AcDbEntity
8
0
100
AcDbPolyline
90
4
70
1
43
0.0
10
22.480515184425435
20
198.99511509067548
10
26.480515184425407
20
198.99511509067548
10
26.480515184425407
20
194.99511509067554
10
22.480515184425435
20
194.99511509067554
0
LWPOLYLINE
5
109
100
AcDbEntity
8
0
100
AcDbPolyline
90
4
70
1
43
0.0
10
28.480515184425386
20
198.99511509067548
10
32.480515184425357
20
198.99511509067548
10
32.480515184425357
20
194.99511509067554
10
28.480515184425386
20
194.99511509067554
0
LWPOLYLINE
5
110
100
AcDbEntity
8
0
100
AcDbPolyline
90
4
70
1
43
0.0
10
34.480515184425336
20
198.99511509067548
10
38.4805151844253
20
198.99511509067548
10
38.4805151844253
20
194.99511509067554
10
34.480515184425336
20
194.99511509067554
0
LWPOLYLINE
5
111
100
AcDbEntity
8
0
100
AcDbPolyline
90
4
70
1
43
0.0
10
40.480515184425279
20
198.99511509067548
10
44.480515184425251
20
198.99511509067548
10
44.480515184425251
20
194.99511509067554
10
40.480515184425279
20
194.99511509067554
0
LWPOLYLINE
5
112
100
AcDbEntity
8
0
100
AcDbPolyline
90
4
70
1
43
0.0
10
46.480515184425215
20
198.99511509067548
10
50.480515184425194
20
198.99511509067548
10
50.480515184425194
20
194.99511509067554
10
46.480515184425215
20
194.99511509067554
0
LWPOLYLINE
5
113
100
AcDbEntity
8
0
100
AcDbPolyline
90
4
70
1
43
0.0
10
22.480515184425435
20
192.99511509067548
10
26.480515184425407
20
192.99511509067548
10
26.480515184425407
20
188.99511509067554
10
22.480515184425435
20
188.99511509067554
0
LWPOLYLINE
5
114
100
AcDbEntity
8
0
100
AcDbPolyline
90
4
70
1
43
0.0
10
28.480515184425386
20
192.99511509067548
10
32.480515184425357
20
192.99511509067548
10
32.480515184425357
20
188.99511509067554
10
28.480515184425386
20
188.99511509067554
0
LWPOLYLINE
5
115
100
AcDbEntity
8
0
100
AcDbPolyline
90
4
70
1
43
0.0
10
34.480515184425336
20
192.99511509067548
10
38.4805151844253
20
192.99511509067548
10
38.4805151844253
20
188.99511509067554
10
34.480515184425336
20
188.99511509067554
0
LWPOLYLINE
5
116
100
AcDbEntity
8
0
100
AcDbPolyline
90
4
70
1
43
0.0
10
40.480515184425279
20
192.99511509067548
10
44.480515184425251
20
192.99511509067548
10
44.480515184425251
20
188.99511509067554
10
40.480515184425279
20
188.99511509067554
0
LWPOLYLINE
5
117
100
AcDbEntity
8
0
100
AcDbPolyline
90
4
70
1
43
0.0
10
46.480515184425215
20
192.99511509067548
10
50.480515184425194
20
192.99511509067548
10
50.480515184425194
20
188.99511509067554
10
46.480515184425215
20
188.99511509067554
0
LWPOLYLINE
5
118
100
AcDbEntity
8
0
100
AcDbPolyline
90
4
70
1
43
0.0
10
22.480515184425435
20
186.99511509067554
10
26.480515184425407
20
186.99511509067554
10
26.480515184425407
20
182.99511509067565
10
22.480515184425435
20
182.99511509067565
0
LWPOLYLINE
5
119
100
AcDbEntity
8
0
100
AcDbPolyline
90
4
70
1
43
0.0
10
28.480515184425386
20
186.99511509067554
10
32.480515184425357
20
186.99511509067554
10
32.48051518442535
20
182.99511509067565
10
28.480515184425386
20
182.99511509067565
0
LWPOLYLINE
5
120
100
AcDbEntity
8
0
100
AcDbPolyline
90
4
70
1
43
0.0
10
34.480515184425336
20
186.99511509067554
10
38.4805151844253
20
186.99511509067554
10
38.4805151844253
20
182.99511509067565
10
34.480515184425336
20
182.99511509067565
0
LWPOLYLINE
5
121
100
AcDbEntity
8
0
100
AcDbPolyline
90
4
70
1
43
0.0
10
40.480515184425279
20
186.99511509067554
10
44.480515184425251
20
186.99511509067554
10
44.480515184425251
20
182.99511509067565
10
40.480515184425279
20
182.99511509067565
0
LWPOLYLINE
5
122
100
AcDbEntity
8
0
100
AcDbPolyline
90
4
70
1
43
0.0
10
46.480515184425215
20
186.99511509067554
10
50.480515184425194
20
186.99511509067554
10
50.480515184425194
20
182.99511509067565
10
46.480515184425215
20
182.99511509067565
0
LWPOLYLINE
5
123
100
AcDbEntity
8
0
100
AcDbPolyline
90
4
70
1
43
0.0
10
22.480515184425435
20
180.99511509067565
10
26.480515184425407
20
180.99511509067565
10
26.480515184425407
20
176.99511509067571
10
22.480515184425435
20
176.99511509067571
0
LWPOLYLINE
5
124
100
AcDbEntity
8
0
100
AcDbPolyline
90
4
70
1
43
0.0
10
28.480515184425386
20
180.99511509067565
10
32.48051518442535
20
180.99511509067565
10
32.48051518442535
20
176.99511509067571
10
28.480515184425386
20
176.99511509067571
0
LWPOLYLINE
5
125
100
AcDbEntity
8
0
100
AcDbPolyline
90
4
70
1
43
0.0
10
34.480515184425336
20
180.99511509067565
10
38.4805151844253
20
180.99511509067565
10
38.4805151844253
20
176.99511509067571
10
34.480515184425336
20
176.99511509067571
0
LWPOLYLINE
5
126
100
AcDbEntity
8
0
100
AcDbPolyline
90
4
70
1
43
0.0
10
40.480515184425279
20
180.99511509067565
10
44.480515184425251
20
180.99511509067565
10
44.480515184425251
20
176.99511509067571
10
40.480515184425279
20
176.99511509067571
0
LWPOLYLINE
5
127
100
AcDbEntity
8
0
100
AcDbPolyline
90
4
70
1
43
0.0
10
46.480515184425215
20
180.99511509067565
10
50.480515184425194
20
180.99511509067565
10
50.480515184425194
20
176.99511509067571
10
46.480515184425215
20
176.99511509067571
0
LWPOLYLINE
5
128
100
AcDbEntity
8
0
100
AcDbPolyline
90
4
70
1
43
0.0
10
193.56032654204154
20
181.27584315734504
42
0.40000100839272201
10
193.56033128143702
20
194.7241434619221
42
0.99999183701522998
10
189.93964455960315
20
191.27586451992948
42
-0.39999939246392396
10
189.93966419758792
20
184.72414769574274
42
1.0000034322418154
0
LWPOLYLINE
5
129
100
AcDbEntity
8
0
100
AcDbPolyline
90
4
70
1
43
0.0
10
179.43966512076895
20
194.72414843839999
42
0.40000100839313885
10
179.43966038137347
20
181.27584813382293
42
0.99999183701182981
10
183.06034710319719
20
184.72412707581557
42
-0.39999939246307425
10
183.06032746521242
20
191.27584390000226
42
1.0000034322418154
0
LWPOLYLINE
5
130
100
AcDbEntity
8
0
100
AcDbPolyline
90
4
70
1
43
0.0
10
98.999999999999986
20
195.50000000000009
10
123.99999999999999
20
195.50000000000009
10
123.99999999999999
20
189.50000000000006
10
98.999999999999986
20
189.50000000000006
0
LWPOLYLINE
5
131
100
AcDbEntity
8
0
100
AcDbPolyline
90
4
70
1
43
0.0
10
123.99999999999999
20
180.50000000000009
10
98.999999999999986
20
180.50000000000009
10
98.999999999999986
20
186.50000000000009
10
123.99999999999999
20
186.50000000000009
0
ENDSEC
0
SECTION
2
OBJECTS
0
DICTIONARY
5
C
100
AcDbDictionary
3
ACAD_GROUP
350
D
3
ACAD_MLINESTYLE
350
17
0
DICTIONARY
5
D
100
AcDbDictionary
0
DICTIONARY
5
1A
330
C
100
AcDbDictionary
0
DICTIONARY
5
17
100
AcDbDictionary
0
ENDSEC
0
EOF
